<svg width="141" height="45" viewBox="0 0 141 45" fill="none" xmlns="http://www.w3.org/2000/svg">
<path d="M70.33 25.02H76.78C76.6 25.74 76.33 26.41 75.97 27.03C75.63 27.65 75.18 28.2 74.62 28.68C74.08 29.14 73.44 29.5 72.7 29.76C71.96 30.02 71.12 30.15 70.18 30.15C69.14 30.15 68.17 29.97 67.27 29.61C66.39 29.25 65.62 28.73 64.96 28.05C64.3 27.37 63.78 26.56 63.4 25.62C63.04 24.68 62.86 23.64 62.86 22.5C62.86 21.36 63.05 20.32 63.43 19.38C63.81 18.44 64.33 17.64 64.99 16.98C65.65 16.32 66.42 15.81 67.3 15.45C68.2 15.09 69.16 14.91 70.18 14.91C71.64 14.91 72.88 15.22 73.9 15.84C74.94 16.44 75.75 17.24 76.33 18.24L79.21 16.29C78.59 15.31 77.84 14.48 76.96 13.8C76.08 13.1 75.07 12.57 73.93 12.21C72.81 11.83 71.56 11.64 70.18 11.64C68.6 11.64 67.13 11.91 65.77 12.45C64.43 12.97 63.26 13.71 62.26 14.67C61.28 15.63 60.51 16.78 59.95 18.12C59.41 19.44 59.14 20.9 59.14 22.5C59.14 24.1 59.41 25.57 59.95 26.91C60.49 28.25 61.25 29.41 62.23 30.39C63.23 31.37 64.4 32.13 65.74 32.67C67.08 33.19 68.54 33.45 70.12 33.45C71.8 33.45 73.29 33.15 74.59 32.55C75.89 31.93 76.98 31.09 77.86 30.03C78.74 28.97 79.4 27.76 79.84 26.4C80.28 25.02 80.48 23.56 80.44 22.02H70.33V25.02ZM87.1012 27.6V19.2H83.7712V27.96C83.7712 29.06 83.9512 30.01 84.3112 30.81C84.6912 31.61 85.2412 32.23 85.9612 32.67C86.6812 33.09 87.5512 33.3 88.5712 33.3C89.5312 33.3 90.3512 33.1 91.0312 32.7C91.7312 32.28 92.3012 31.67 92.7412 30.87V33H95.9812V19.2H92.7412V27.6C92.7412 28.22 92.6112 28.76 92.3512 29.22C92.0912 29.68 91.7312 30.04 91.2712 30.3C90.8112 30.56 90.2712 30.69 89.6512 30.69C89.0712 30.69 88.5912 30.57 88.2112 30.33C87.8312 30.09 87.5512 29.74 87.3712 29.28C87.1912 28.8 87.1012 28.24 87.1012 27.6ZM99.9988 13.71C99.9988 14.27 100.199 14.74 100.599 15.12C100.999 15.5 101.479 15.69 102.039 15.69C102.619 15.69 103.099 15.5 103.479 15.12C103.879 14.74 104.079 14.27 104.079 13.71C104.079 13.15 103.879 12.68 103.479 12.3C103.099 11.92 102.619 11.73 102.039 11.73C101.479 11.73 100.999 11.92 100.599 12.3C100.199 12.68 99.9988 13.15 99.9988 13.71ZM100.449 19.2V33H103.629V19.2H100.449ZM118.468 9.6V33H121.738V9.6H118.468ZM107.038 26.1C107.038 27.6 107.348 28.89 107.968 29.97C108.588 31.05 109.408 31.88 110.428 32.46C111.448 33.02 112.558 33.3 113.758 33.3C114.618 33.3 115.408 33.14 116.128 32.82C116.848 32.48 117.468 32 117.988 31.38C118.508 30.76 118.908 30.01 119.188 29.13C119.488 28.23 119.638 27.22 119.638 26.1C119.638 24.98 119.488 23.98 119.188 23.1C118.908 22.2 118.508 21.44 117.988 20.82C117.468 20.2 116.848 19.73 116.128 19.41C115.408 19.07 114.618 18.9 113.758 18.9C112.558 18.9 111.448 19.19 110.428 19.77C109.408 20.33 108.588 21.15 107.968 22.23C107.348 23.29 107.038 24.58 107.038 26.1ZM110.398 26.1C110.398 25.18 110.588 24.4 110.968 23.76C111.348 23.1 111.848 22.6 112.468 22.26C113.108 21.9 113.798 21.72 114.538 21.72C114.998 21.72 115.458 21.82 115.918 22.02C116.398 22.2 116.828 22.48 117.208 22.86C117.588 23.22 117.888 23.68 118.108 24.24C118.348 24.78 118.468 25.4 118.468 26.1C118.468 26.8 118.348 27.43 118.108 27.99C117.888 28.53 117.588 28.99 117.208 29.37C116.828 29.73 116.398 30.01 115.918 30.21C115.458 30.39 114.998 30.48 114.538 30.48C113.798 30.48 113.108 30.31 112.468 29.97C111.848 29.61 111.348 29.11 110.968 28.47C110.588 27.81 110.398 27.02 110.398 26.1ZM124.674 26.1C124.674 27.5 124.994 28.75 125.634 29.85C126.294 30.93 127.184 31.78 128.304 32.4C129.444 33 130.714 33.3 132.114 33.3C133.534 33.3 134.804 33 135.924 32.4C137.044 31.78 137.924 30.93 138.564 29.85C139.224 28.75 139.554 27.5 139.554 26.1C139.554 24.68 139.224 23.43 138.564 22.35C137.924 21.27 137.044 20.43 135.924 19.83C134.804 19.21 133.534 18.9 132.114 18.9C130.714 18.9 129.444 19.21 128.304 19.83C127.184 20.43 126.294 21.27 125.634 22.35C124.994 23.43 124.674 24.68 124.674 26.1ZM128.004 26.1C128.004 25.24 128.184 24.49 128.544 23.85C128.904 23.19 129.394 22.68 130.014 22.32C130.634 21.94 131.334 21.75 132.114 21.75C132.894 21.75 133.594 21.94 134.214 22.32C134.834 22.68 135.324 23.19 135.684 23.85C136.044 24.49 136.224 25.24 136.224 26.1C136.224 26.96 136.044 27.72 135.684 28.38C135.324 29.02 134.834 29.53 134.214 29.91C133.594 30.27 132.894 30.45 132.114 30.45C131.334 30.45 130.634 30.27 130.014 29.91C129.394 29.53 128.904 29.02 128.544 28.38C128.184 27.72 128.004 26.96 128.004 26.1Z" fill="white"/>
<path fill-rule="evenodd" clip-rule="evenodd" d="M10.0283 34.3317C9.2419 33.869 8.47121 33.4223 7.68478 32.9595C7.35449 32.7681 7.07137 32.5926 6.81972 32.4171L1.00018 28.9388C0.968723 32.9436 1.36194 33.8211 4.4919 35.672C8.29819 37.9217 12.1359 40.0916 15.9422 42.3733C16.1939 42.5328 16.4455 42.6605 16.6815 42.8041C19.8901 44.639 20.7866 44.3837 24.6244 42.0542C26.8106 40.7299 29.0912 39.4534 31.3247 38.161C32.9447 37.2356 34.5648 36.2942 36.1061 35.321C38.6856 33.7095 39.0316 32.6883 39.0002 29.0345C39.0002 29.0185 39.0002 29.0026 39.0002 28.9866L32.3313 32.9915C32.2369 33.0553 32.1426 33.1031 32.0482 33.151C31.4662 33.502 30.8843 33.8531 30.2866 34.2041L27.6442 35.7837C27.6599 35.7518 27.6757 35.7198 27.6914 35.6879C26.3388 36.4697 24.9861 37.2356 23.6649 38.0334C20.4091 40.0278 19.8114 40.1076 16.7758 38.2887C14.5267 36.9484 12.2775 35.6401 10.0283 34.3317ZM36.0904 27.3911C38.5441 25.8434 38.9687 24.8542 38.9845 21.5992C38.9845 21.4397 38.9845 21.2642 38.9845 21.1046C38.9845 21.0887 38.9845 21.0568 38.9845 21.0408L35.0681 23.3863L32.7717 24.7584C32.5201 24.918 32.2841 25.0616 32.0325 25.2211C31.246 25.6998 30.4596 26.1625 29.6575 26.6252L28.1161 27.5506C28.1161 27.5347 28.1161 27.5187 28.1161 27.5028C26.6219 28.3484 25.1119 29.21 23.6492 30.1035C20.3934 32.082 19.7957 32.1777 16.7601 30.3588C11.5225 27.2156 6.30068 24.0883 1.04737 20.9451C1.04737 21.679 1.04737 22.413 1.04737 23.1469C1.25184 25.3967 2.0068 26.2742 4.47617 27.7261C4.61773 27.8059 4.75929 27.8857 4.90084 27.9814C8.56558 30.1514 12.246 32.2256 15.9108 34.4274C19.7328 36.7091 20.472 36.5974 24.5772 34.0924C25.7253 33.3903 26.9207 32.7043 28.1003 32.0182C29.4058 31.2683 30.7113 30.5343 32.001 29.7844C33.0234 29.1941 34.0614 28.5877 35.0523 27.9814C35.4298 27.8059 35.7601 27.5985 36.0904 27.3911ZM35.0838 9.0742C31.2146 6.82448 27.3454 4.52689 23.4919 2.27717C20.0946 0.314642 19.2609 0.585885 15.1558 3.10685C11.9787 5.03746 8.84869 6.85639 5.62435 8.69127L5.56144 8.70722L5.40415 8.787C5.24687 8.88273 5.08958 8.96251 4.9323 9.05824L4.90084 9.0742C4.7121 9.18589 4.53909 9.28162 4.36607 9.39331C2.96624 10.2389 2.13263 10.8931 1.64505 11.7388C0.952995 12.9514 0.890081 15.1054 1.33048 16.4456C1.66078 17.4508 2.27419 18.1369 3.43809 18.9187C3.75266 19.1261 4.09869 19.3495 4.4919 19.5729C4.63346 19.6527 4.77501 19.7484 4.91657 19.8282L4.94803 19.8441C8.59703 22.0141 12.2775 24.0883 15.9265 26.2742C19.7485 28.5558 20.4878 28.4441 24.5929 25.9391C25.7411 25.2371 26.9364 24.551 28.1318 23.8649C29.4373 23.115 30.7427 22.3811 32.0325 21.6312C32.0325 21.1525 32.0325 20.6738 32.0325 20.1952C32.0325 18.9028 31.9538 17.9774 31.7179 17.2274C31.2932 15.8872 30.3338 15.1373 28.3205 13.9406L21.0225 9.63264C20.4406 9.29757 20.472 9.31353 19.5755 9.88793L18.7576 10.4145C17.8454 11.0048 17.9398 12.4089 18.7734 12.9195C20.9124 14.18 23.0515 15.4404 25.1906 16.685C26.8735 17.6742 27.6128 18.2965 27.9431 19.4453C26.5118 20.259 25.0648 21.0727 23.6806 21.9343C20.4248 23.9128 19.8272 24.0085 16.7916 22.1896C13.7402 20.3866 10.7047 18.6634 7.68478 16.8605C6.99273 16.4456 6.45796 16.0946 6.06475 15.7276C5.23114 14.9458 4.96376 14.4352 5.71872 13.5258C6.23776 12.9035 7.07137 12.361 8.42402 11.5952C11.0349 10.1432 13.583 8.67531 16.1467 7.11167C16.2253 7.06381 16.304 7.01594 16.3826 6.96808C19.434 5.10128 20.1417 4.94173 22.7684 6.4575C25.8826 8.26047 29.0126 10.1273 32.1268 11.9462C35.823 14.1002 35.1624 15.951 35.3354 19.7005C35.6815 19.4931 35.7444 19.4453 36.0904 19.2378C38.2609 17.8657 38.8429 16.9402 38.9687 14.4671C38.8429 11.7228 38.1194 10.8772 35.2725 9.2178C35.2096 9.15398 35.1467 9.12206 35.0838 9.0742Z" fill="white"/>
</svg>
